#!OML:ASF F:\VICON\USERDATA\INSTALL\rory3\rory3.ASF
:FULLY-SPECIFIED
:DEGREES
286
root 5.1346 18.0532 23.2963 -2.73032 0.15918 -3.66555
lowerback 10.6378 -0.772633 0.045061
upperback 1.01767 -0.862586 3.06443
thorax -4.85844 -0.398441 3.30691
lowerneck -16.9034 -2.14844 -1.62909
upperneck 16.7027 -2.61421 0.425187
head 7.98118 -1.30342 0.102162
rclavicle 7.95139e-015 -1.19271e-015
rhumerus -35.3281 -25.3418 -73.8306
rradius 22.505
rwrist 7.10334
rhand -17.7058 21.5831
rfingers 7.12502
rthumb 8.55424 -8.22363
lclavicle 7.95139e-015 -1.19271e-015
lhumerus -25.6336 -2.70943 84.6559
lradius 28.6108
lwrist 2.80289
lhand -26.0251 21.8312
lfingers 7.12502
lthumb 0.52154 51.8104
rfemur -18.6011 5.27378 29.5696
rtibia 30.4109
rfoot -6.66901 -5.35716
rtoes 11.7916
lfemur -3.55737 -1.85094 -16.4147
ltibia 60.4699
lfoot 20.1466 -20.7044
ltoes 5.64459
287
root 5.12895 18.0689 23.4671 -2.62595 -0.124043 -3.78165
lowerback 10.7213 -0.654445 0.193029
upperback 0.91046 -0.685392 3.02702
thorax -5.02971 -0.311966 3.16174
lowerneck -16.9262 -2.13017 -1.53803
upperneck 16.9069 -2.58369 0.276493
head 8.04968 -1.29812 0.0400011
rclavicle 7.57867e-015 -2.62396e-014
rhumerus -34.9178 -25.0241 -74.1653
rradius 22.5312
rwrist 7.40532
rhand -17.4945 20.8747
rfingers 7.12502
rthumb 8.75813 -8.92362
lclavicle 7.57867e-015 -2.62396e-014
lhumerus -25.8216 -2.49759 84.7443
lradius 28.3496
lwrist 2.33331
lhand -26.1551 22.0533
lfingers 7.12502
lthumb 0.395939 52.0327
rfemur -18.0281 5.39729 29.8095
rtibia 30.3449
rfoot -7.03067 -5.27719
rtoes 11.0012
lfemur -5.11658 -1.24958 -16.1402
ltibia 62.079
lfoot 16.8873 -19.8028
ltoes 2.49171
288
root 5.12472 18.0754 23.6458 -2.67703 -0.383139 -3.87308
lowerback 10.6457 -0.541297 0.354002
upperback 0.985867 -0.523447 2.9513
thorax -4.919 -0.237539 2.96403
lowerneck -16.9484 -2.13298 -1.46326
upperneck 17.0261 -2.59777 0.230136
head 8.09185 -1.30454 0.00970741
rclavicle 1.6201e-014 -6.75868e-015
rhumerus -34.3109 -24.7279 -74.6388
rradius 22.5939
rwrist 7.73149
rhand -16.2691 21.321
rfingers 7.12502
rthumb 9.94057 -8.42425
lclavicle 1.6201e-014 -6.75868e-015
lhumerus -26.1996 -1.97568 84.7289
lradius 28.5463
lwrist 1.57214
lhand -26.3939 22.0437
lfingers 7.12502
lthumb 0.165337 52.0233
rfemur -17.1425 5.55408 29.9921
rtibia 30.1202
rfoot -7.57688 -5.22304
rtoes 11.5502
lfemur -6.24114 -0.710725 -15.9296
ltibia 63.5207
lfoot 13.0417 -19.1293
ltoes -2.24919
289
root 5.11408 18.0826 23.8301 -2.79321 -0.621793 -4.21371
lowerback 10.5829 -0.455318 0.643342
upperback 1.05533 -0.375879 3.00456
thorax -4.81991 -0.171077 2.83239
lowerneck -16.6895 -2.15013 -1.41621
upperneck 16.9013 -2.62309 0.161544
head 8.00315 -1.32129 -0.020124
rclavicle 3.47873e-015 7.95139e-015
rhumerus -33.9621 -24.0512 -75.1221
rradius 22.8846
rwrist 7.76863
rhand -15.2452 23.4688
rfingers 7.12502
rthumb 10.9282 -6.22683
lclavicle 3.47873e-015 7.95139e-015
lhumerus -26.7619 -1.74763 84.7979
lradius 28.8342
lwrist 1.16934
lhand -25.9791 22.4458
lfingers 7.12502
lthumb 0.565944 52.4248
rfemur -16.0865 5.82468 30.4751
rtibia 29.8507
rfoot -8.19763 -5.3185
rtoes 12.055
lfemur -7.35008 -0.229165 -15.3718
ltibia 64.7976
lfoot 9.70675 -18.2504
ltoes -6.11249
290
root 5.09979 18.0942 24.0024 -2.94444 -0.851211 -4.7081
lowerback 10.788 -0.342594 1.00505
upperback 1.074 -0.171398 3.13765
thorax -4.92476 -0.0756781 2.74057
lowerneck -16.6461 -2.10144 -1.43991
upperneck 17.0218 -2.55527 0.17931
head 8.0358 -1.28895 -0.00268826
rclavicle 1.22004e-014 -6.75868e-015
rhumerus -33.6852 -23.2871 -75.6415
rradius 23.3499
rwrist 7.48782
rhand -15.3977 23.9453
rfingers 7.12502
rthumb 10.7812 -5.75798
lclavicle 1.22004e-014 -6.75868e-015
lhumerus -27.0705 -1.71592 84.9817
lradius 28.8022
lwrist 0.871812
lhand -25.9291 22.5731
lfingers 7.12502
lthumb 0.614263 52.552
rfemur -15.143 6.06492 31.1879
rtibia 29.648
rfoot -8.55311 -5.51029
rtoes 11.641
lfemur -8.58347 0.207937 -14.613
ltibia 65.8678
lfoot 7.29595 -16.869
ltoes -7.43035
291
root 5.09651 18.1164 24.1604 -2.90487 -1.05611 -4.81661
lowerback 10.9729 -0.238606 1.19163
upperback 1.01006 -0.00632367 3.07269
thorax -5.10168 0.002067 2.54522
lowerneck -16.4964 -2.10034 -1.592
upperneck 17.0546 -2.56541 0.413239
head 8.02597 -1.28035 0.100156
rclavicle -4.5472e-015 2.5842e-014
rhumerus -33.1951 -22.6839 -76.1852
rradius 23.3506
rwrist 7.02069
rhand -15.8515 23.3961
rfingers 7.12502
rthumb 10.3434 -6.32957
lclavicle -4.5472e-015 2.5842e-014
lhumerus -27.2208 -1.70584 85.081
lradius 28.6039
lwrist 0.631997
lhand -25.8643 23.2842
lfingers 7.12502
lthumb 0.676794 53.2628
rfemur -14.5951 5.85925 31.462
rtibia 29.4212
rfoot -8.49225 -5.4632
rtoes 10.3648
lfemur -10.0107 0.537421 -14.3972
ltibia 66.6895
lfoot 5.58919 -15.5679
ltoes -8.73059
292
root 5.1002 18.1321 24.3335 -2.74955 -1.20368 -4.4323
lowerback 10.7283 -0.147275 0.957872
upperback 1.00522 0.0691522 2.87302
thorax -4.97252 0.0418919 2.45346
lowerneck -16.1129 -2.1284 -1.6987
upperneck 16.767 -2.59415 0.47326
head 7.8654 -1.29624 0.139814
rclavicle 1.02374e-014 -2.26615e-014
rhumerus -32.7113 -22.299 -76.5116
rradius 23.1524
rwrist 6.92847
rhand -16.0079 23.281
rfingers 7.12502
rthumb 10.1925 -6.45213
lclavicle 1.02374e-014 -2.26615e-014
lhumerus -27.4564 -1.46076 85.1465
lradius 28.5476
lwrist 0.643053
lhand -26.2188 23.617
lfingers 7.12502
lthumb 0.334419 53.5964
rfemur -13.9623 5.58753 31.0848
rtibia 29.1426
rfoot -8.95909 -5.159
rtoes 10.2192
lfemur -11.3969 0.784078 -14.866
ltibia 67.2844
lfoot 3.79861 -14.1242
ltoes -9.93554
